<svg xmlns="http://www.w3.org/2000/svg" viewBox="0 0 177.09 284.27"><defs><style>.a{fill:#f9b458;}.b{fill:#5cbedd;}.c{fill:#2a4671;}.d{fill:#edeeed;}.e{fill:#fb766a;}.f{fill:#3f6491;}.g{fill:#5d8199;}.h{fill:#ffca85;}</style></defs><title>blue_robot</title><path class="a" d="M622.92,273.86v32.83h16.65V257.21A16.65,16.65,0,0,0,622.92,273.86Z" transform="translate(-551.02 -257.21)"/><path class="a" d="M656.21,273.86a16.65,16.65,0,0,0-16.65-16.65h0v49.48h16.65V273.86Z" transform="translate(-551.02 -257.21)"/><polygon class="b" points="88.55 124.34 63.27 124.34 63.27 150.66 88.55 150.66 113.82 150.66 113.82 124.34 88.55 124.34"/><path class="a" d="M718.27,324.28H698.86V344h19.41A9.84,9.84,0,1,0,718.27,324.28Z" transform="translate(-551.02 -257.21)"/><polygon class="b" points="140.09 61.97 140.09 76.91 140.09 91.85 149.71 91.85 149.71 76.91 149.71 61.97 140.09 61.97"/><path class="a" d="M560.86,324.28a9.84,9.84,0,0,0,0,19.68h19.41V324.28H560.86Z" transform="translate(-551.02 -257.21)"/><polygon class="b" points="27.38 61.97 27.38 76.91 27.38 91.85 37 91.85 37 76.91 37 61.97 27.38 61.97"/><polygon class="b" points="57.15 213.97 45.54 213.97 45.54 248.24 57.15 248.24 68.76 248.24 68.76 213.97 57.15 213.97"/><circle class="a" cx="57.15" cy="259.9" r="24.37"/><path class="c" d="M608.17,528.44a11.32,11.32,0,1,1,11.32-11.32A11.34,11.34,0,0,1,608.17,528.44Z" transform="translate(-551.02 -257.21)"/><polygon class="b" points="119.94 213.97 108.32 213.97 108.32 248.24 119.94 248.24 131.55 248.24 131.55 213.97 119.94 213.97"/><circle class="a" cx="119.94" cy="259.9" r="24.37"/><path class="c" d="M671,528.44a11.32,11.32,0,1,1,11.32-11.32A11.34,11.34,0,0,1,671,528.44Z" transform="translate(-551.02 -257.21)"/><polygon class="c" points="88.54 38.23 35.74 38.23 35.74 124.34 88.54 124.34 141.35 124.34 141.35 38.23 88.54 38.23"/><polygon class="c" points="88.54 150.66 27.63 150.66 27.63 220.86 88.54 220.86 149.46 220.86 149.46 150.66 88.54 150.66"/><circle class="d" cx="113" cy="70.85" r="14.95"/><path class="e" d="M664,338.23a10.17,10.17,0,1,1,10.17-10.17A10.18,10.18,0,0,1,664,338.23Z" transform="translate(-551.02 -257.21)"/><circle class="a" cx="113" cy="70.85" r="7.32"/><path class="f" d="M664,312a16.11,16.11,0,0,0-16.09,16.09h32.18A16.11,16.11,0,0,0,664,312Z" transform="translate(-551.02 -257.21)"/><circle class="d" cx="64.55" cy="70.85" r="14.95"/><path class="e" d="M615.57,338.23a10.17,10.17,0,1,1,10.17-10.17A10.18,10.18,0,0,1,615.57,338.23Z" transform="translate(-551.02 -257.21)"/><circle class="a" cx="64.55" cy="70.85" r="7.32"/><path class="f" d="M615.11,312.43A16.11,16.11,0,0,0,599,328.52H631.2A16.11,16.11,0,0,0,615.11,312.43Z" transform="translate(-551.02 -257.21)"/><rect class="a" x="69.18" y="104.9" width="38.73" height="7.18"/><rect class="b" x="97.34" y="164.53" width="10.28" height="10.28"/><rect class="a" x="113.86" y="164.53" width="10.28" height="10.28"/><rect class="e" x="130.39" y="164.53" width="10.28" height="10.28"/><rect class="e" x="97.34" y="180.62" width="10.28" height="10.28"/><rect class="d" x="113.86" y="180.62" width="10.28" height="10.28"/><rect class="b" x="130.39" y="180.62" width="10.28" height="10.28"/><rect class="g" x="97.34" y="196.72" width="10.28" height="10.28"/><rect class="e" x="113.86" y="196.72" width="10.28" height="10.28"/><rect class="a" x="130.39" y="196.72" width="10.28" height="10.28"/><path class="h" d="M595.06,443a12.71,12.71,0,0,0,12.71,12.71V430.27A12.71,12.71,0,0,0,595.06,443Z" transform="translate(-551.02 -257.21)"/><path class="a" d="M607.77,430.27v25.42A12.71,12.71,0,1,0,607.77,430.27Z" transform="translate(-551.02 -257.21)"/></svg>